<svg xmlns="http://www.w3.org/2000/svg" viewBox="0 0 204.11 122.7"><path d="M203.18,87.49c-42.88-23.26-88.92-2.82-97.37,34.29,0,0,75.36-10.91,97.37-34.29" style="fill:#8EB533"/><path d="M131.13,1.34h0C117.74,6.68,104,24.62,96.85,48.18c-6.17,20.31-6,39.81-.6,52.42a116.46,116.46,0,0,1,8.27-21.37c1.5-2.84,3.73-1.48,3.68.78,0,1.92-.51,5.56-2.21,13.57-.57,2.68-1.3,6.2-2.1,10.22,11.83-7.19,23.28-23.61,29.63-44.45,7.17-23.58,5.77-46.12-2.39-58" style="fill:#8EB533"/><path d="M89.86,45.48c.5-1.66,1-3.27,1.61-4.88C76.34,22.8,57.91,12.18,44.08,12.25h0c-3.12,14.06,4,35.5,19.46,54.69A102,102,0,0,0,86.38,88.07C84.14,76.17,85.12,61.06,89.86,45.48Z" style="fill:#8EB533"/><path d="M1.19,87.49c42.87-23.26,88.91-2.82,97.35,34.29,0,0-75.35-10.91-97.35-34.29" style="fill:#8EB533"/></svg>