<svg xmlns="http://www.w3.org/2000/svg" viewBox="0 0 715.15 139.6"><path d="M236.22,114.07a4.09,4.09,0,0,1-4.07-4.06V27.29a4.09,4.09,0,0,1,4.07-4.07h22.45c19.95,0,30.46,8.26,30.46,27.57,0,17.85-7.22,28.89-28.89,28.89H248V110a4.09,4.09,0,0,1-4.07,4.06ZM248,66.54h11.29c9.06,0,13.27-3.41,13.27-14.7,0-11.69-3.95-15.23-13.14-15.23H248Z" style="fill:#362D31"/><path d="M314.61,115.51c-11.29,0-14.17-5.64-14.17-18.64V22.56a4.09,4.09,0,0,1,4.07-4.07h6.82a4.09,4.09,0,0,1,4.07,4.07V98.71c0,2.89.92,4.33,2.76,4.85,2.62.8,4.33,1.58,4.72,4.21l.4,2.75a3.74,3.74,0,0,1-3.15,4.34A25.65,25.65,0,0,1,314.61,115.51Z" style="fill:#362D31"/><path d="M377.12,136.92c-29.27,0-46.6-16.55-46.6-49.24s20-57.5,53.17-57.5c29.41,0,45.69,17.85,45.69,46.47,0,26.91-10.5,38.86-26,38.86-11.17,0-15.76-5.38-17.33-13.13-4.73,5.78-10.9,11.16-18.78,11.16-7.48,0-13-5.51-13-18.38A68.67,68.67,0,0,1,356,81c4.07-19.69,11.95-26.78,23.77-26.78,6.17,0,10.36,3.54,12.6,5.77l.13-.52a4.94,4.94,0,0,1,4.86-4h5.25a3.36,3.36,0,0,1,3.28,4L398.53,94a19.73,19.73,0,0,0-.53,4.46c0,4.73,2.37,6.7,5.51,6.7,8,0,13.27-7.74,13.27-28.49,0-24.15-9.19-36-33.61-36-26.52,0-39.66,19.43-39.66,47,0,28.1,10.91,38.6,33.48,38.6a49.94,49.94,0,0,0,14.71-2,4.13,4.13,0,0,1,5.12,2.62l.66,2.1a4,4,0,0,1-2.49,5.13A57.29,57.29,0,0,1,377.12,136.92Zm-4.72-34.14c4.46,0,8.67-3.81,12.35-7.49L390.52,68c-2-1.7-4.59-3.81-8.4-3.81-6.57,0-9.06,3.94-12.08,18.38a69.25,69.25,0,0,0-2,13.66C368.07,101.07,369.65,102.78,372.4,102.78Z" style="fill:#362D31"/><path d="M445.41,114.07a4.09,4.09,0,0,1-4.07-4.06V51.71a4.09,4.09,0,0,1,4.07-4.07h3.81a5.21,5.21,0,0,1,5,3.93l.65,3.28c5.39-5.24,11.43-8.92,19.57-8.92,10.5,0,16.67,4.86,16.67,17.33V110a4.08,4.08,0,0,1-4.07,4.06H480.2a4.09,4.09,0,0,1-4.07-4.06V67.07c0-7-2.23-8.67-7.09-8.67s-8.92,2.5-12.73,5.91V110a4.09,4.09,0,0,1-4.07,4.06Z" style="fill:#362D31"/><path d="M504.51,59.2a4.1,4.1,0,0,1-4.07-4.08V51.71a4.09,4.09,0,0,1,4.07-4.07h3.15V35a4.93,4.93,0,0,1,3.94-4.85l7-1.32a3.37,3.37,0,0,1,3.94,3.29V47.64h8.92a4.1,4.1,0,0,1,4.08,4.07v3.41a4.1,4.1,0,0,1-4.08,4.08H522.5V97.66c0,5,1.7,6.56,5.12,6.56a14.49,14.49,0,0,0,3.54-.52,3,3,0,0,1,3.81,2.23l.79,3.42a4.45,4.45,0,0,1-3,5.25,25.46,25.46,0,0,1-7.74,1.18c-10.24,0-17.33-3.82-17.33-15.36V59.2Z" style="fill:#362D31"/><path d="M556.05,114.07a2.92,2.92,0,0,1-2.89-2.89V26.76a2.92,2.92,0,0,1,2.89-2.88h3.55a4.82,4.82,0,0,1,4.2,2.62l28.36,58.16a137.06,137.06,0,0,1,8,19.43h.26a197.87,197.87,0,0,1-1-21.93V26.76a2.91,2.91,0,0,1,2.89-2.88h2a2.91,2.91,0,0,1,2.88,2.88v84.42a2.91,2.91,0,0,1-2.88,2.89h-3.42a4.83,4.83,0,0,1-4.2-2.62l-27.3-55.54A150,150,0,0,1,560.26,34H560a236.41,236.41,0,0,1,.92,24.42v52.78a2.91,2.91,0,0,1-2.89,2.89Z" style="fill:#8EB533"/><path d="M632.33,83.87c.26,19,5.38,24.82,17.19,24.82a22.72,22.72,0,0,0,13.26-3.94,3.1,3.1,0,0,1,4.21.65l.78.92a2.74,2.74,0,0,1-.66,3.94c-4.72,3.28-10.11,5.12-17.59,5.12-15,0-25.47-8.4-25.47-32.56,0-23.89,10.11-32.82,24-32.82,14.57,0,22.45,9.2,22.45,30.59V82.3a1.49,1.49,0,0,1-1.44,1.57Zm.13-6.16h29.93c0-16-4.73-21.28-14.44-21.28C639.15,56.43,633.37,61.3,632.46,77.71Z" style="fill:#8EB533"/><path d="M687.59,57.75h-4.73a2.93,2.93,0,0,1-2.89-2.9v-.64a2.93,2.93,0,0,1,2.89-2.9h4.73V37.66a3.66,3.66,0,0,1,2.76-3.54l2.23-.53a2.36,2.36,0,0,1,2.76,2.23V51.31h10.23a2.93,2.93,0,0,1,2.9,2.9v.64a2.93,2.93,0,0,1-2.9,2.9H695.34v45.42c0,3.81,1.7,5.78,5.25,5.78a12.6,12.6,0,0,0,4.72-.79A3.05,3.05,0,0,1,709,110a3.09,3.09,0,0,1-1.71,4.06,18.42,18.42,0,0,1-7.09,1.31c-7.08,0-12.6-3.28-12.6-11.82Z" style="fill:#8EB533"/><path d="M205,88.7c-42.87-23.26-88.91-2.82-97.36,34.29,0,0,75.36-10.91,97.36-34.29" style="fill:#8EB533"/><path d="M133,2.55h0c-13.39,5.34-27.11,23.28-34.28,46.84-6.18,20.31-6,39.81-.61,52.42,2.41-8,4.79-14.77,8.28-21.37,1.5-2.84,3.73-1.48,3.67.78-.05,1.92-.5,5.56-2.2,13.57-.58,2.68-1.3,6.2-2.1,10.22C117.54,97.82,129,81.4,135.33,60.56c7.18-23.58,5.78-46.12-2.38-58" style="fill:#8EB533"/><path d="M91.68,46.69c.49-1.66,1-3.27,1.61-4.88C78.16,24,59.72,13.4,45.9,13.46h0c-3.12,14.06,4,35.5,19.45,54.69A102.24,102.24,0,0,0,88.2,89.28C86,77.38,86.93,62.27,91.68,46.69Z" style="fill:#8EB533"/><path d="M3,88.7C45.87,65.44,91.91,85.88,100.36,123,100.36,123,25,112.08,3,88.7" style="fill:#8EB533"/></svg>